<svg width="16" height="16" viewBox="0 0 16 16" fill="none" xmlns="http://www.w3.org/2000/svg">
<mask id="path-1-outside-1_6161_463" maskUnits="userSpaceOnUse" x="1.6665" y="1.66669" width="12" height="12" fill="black">
<rect fill="white" x="1.6665" y="1.66669" width="12" height="12"/>
<path fill-rule="evenodd" clip-rule="evenodd" d="M12.6665 10.0134C12.6665 10.2867 12.4398 10.5134 12.1665 10.5134C11.8932 10.5134 11.6665 10.2867 11.6665 10.0134V4.37331L3.18652 12.8533C3.08652 12.9533 2.95986 13 2.83319 13C2.70652 13 2.57986 12.9533 2.47986 12.8533C2.28652 12.66 2.28652 12.34 2.47986 12.1466L10.9598 3.66669H5.31984C5.0465 3.66669 4.81984 3.44002 4.81984 3.16669C4.81984 2.89335 5.0465 2.66669 5.31984 2.66669H12.1665C12.2391 2.66669 12.3085 2.6827 12.3712 2.71134C12.4253 2.73531 12.4759 2.7693 12.5199 2.81329C12.5634 2.85687 12.5972 2.90688 12.6211 2.96043C12.6502 3.02352 12.6665 3.09343 12.6665 3.16669V10.0134Z"/>
</mask>
<path fill-rule="evenodd" clip-rule="evenodd" d="M12.6665 10.0134C12.6665 10.2867 12.4398 10.5134 12.1665 10.5134C11.8932 10.5134 11.6665 10.2867 11.6665 10.0134V4.37331L3.18652 12.8533C3.08652 12.9533 2.95986 13 2.83319 13C2.70652 13 2.57986 12.9533 2.47986 12.8533C2.28652 12.66 2.28652 12.34 2.47986 12.1466L10.9598 3.66669H5.31984C5.0465 3.66669 4.81984 3.44002 4.81984 3.16669C4.81984 2.89335 5.0465 2.66669 5.31984 2.66669H12.1665C12.2391 2.66669 12.3085 2.6827 12.3712 2.71134C12.4253 2.73531 12.4759 2.7693 12.5199 2.81329C12.5634 2.85687 12.5972 2.90688 12.6211 2.96043C12.6502 3.02352 12.6665 3.09343 12.6665 3.16669V10.0134Z" fill="#1A1927"/>
<path d="M11.6665 4.37331L11.5251 4.23189L11.8665 3.89047V4.37331H11.6665ZM3.18652 12.8533L3.32794 12.9947L3.32794 12.9947L3.18652 12.8533ZM2.47986 12.1466L2.33844 12.0052L2.47986 12.1466ZM10.9598 3.66669V3.46669H11.4426L11.1012 3.80811L10.9598 3.66669ZM12.3712 2.71134L12.2902 2.89422L12.288 2.89324L12.3712 2.71134ZM12.5199 2.81329L12.6613 2.67187L12.5199 2.81329ZM12.6211 2.96043L12.4395 3.0442L12.4385 3.04204L12.6211 2.96043ZM12.1665 10.3134C12.3294 10.3134 12.4665 10.1762 12.4665 10.0134H12.8665C12.8665 10.3971 12.5503 10.7134 12.1665 10.7134V10.3134ZM11.8665 10.0134C11.8665 10.1762 12.0036 10.3134 12.1665 10.3134V10.7134C11.7827 10.7134 11.4665 10.3971 11.4665 10.0134H11.8665ZM11.8665 4.37331V10.0134H11.4665V4.37331H11.8665ZM3.0451 12.7119L11.5251 4.23189L11.8079 4.51473L3.32794 12.9947L3.0451 12.7119ZM2.83319 12.8C2.90968 12.8 2.98458 12.7724 3.0451 12.7119L3.32794 12.9947C3.18846 13.1342 3.01004 13.2 2.83319 13.2V12.8ZM2.62128 12.7119C2.6818 12.7724 2.7567 12.8 2.83319 12.8V13.2C2.65634 13.2 2.47792 13.1342 2.33844 12.9947L2.62128 12.7119ZM2.62128 12.288C2.50605 12.4033 2.50605 12.5966 2.62128 12.7119L2.33844 12.9947C2.067 12.7233 2.067 12.2766 2.33844 12.0052L2.62128 12.288ZM11.1012 3.80811L2.62128 12.288L2.33844 12.0052L10.8184 3.52527L11.1012 3.80811ZM5.31984 3.46669H10.9598V3.86669H5.31984V3.46669ZM5.01984 3.16669C5.01984 3.32956 5.15696 3.46669 5.31984 3.46669V3.86669C4.93605 3.86669 4.61984 3.55048 4.61984 3.16669H5.01984ZM5.31984 2.86669C5.15696 2.86669 5.01984 3.00381 5.01984 3.16669H4.61984C4.61984 2.7829 4.93605 2.46669 5.31984 2.46669V2.86669ZM12.1665 2.86669H5.31984V2.46669H12.1665V2.86669ZM12.288 2.89324C12.2506 2.87612 12.2095 2.86669 12.1665 2.86669V2.46669C12.2688 2.46669 12.3664 2.48927 12.4543 2.52944L12.288 2.89324ZM12.3784 2.95472C12.3523 2.9286 12.3224 2.90847 12.2902 2.89421L12.4522 2.52847C12.5282 2.56215 12.5994 2.60999 12.6613 2.67187L12.3784 2.95472ZM12.4385 3.04204C12.4243 3.01019 12.4043 2.98058 12.3784 2.95472L12.6613 2.67187C12.7226 2.73316 12.7701 2.80358 12.8037 2.87881L12.4385 3.04204ZM12.4665 3.16669C12.4665 3.12333 12.4569 3.08192 12.4395 3.0442L12.8027 2.87666C12.8435 2.96511 12.8665 3.06352 12.8665 3.16669H12.4665ZM12.4665 10.0134V3.16669H12.8665V10.0134H12.4665Z" fill="#1A1927" mask="url(#path-1-outside-1_6161_463)"/>
</svg>
