<svg width="34" height="34" viewBox="0 0 34 34" fill="none" xmlns="http://www.w3.org/2000/svg">
<path d="M29.75 7.08301C29.75 9.43022 24.0416 11.333 17 11.333C9.95837 11.333 4.25 9.43022 4.25 7.08301M29.75 7.08301C29.75 4.7358 24.0416 2.83301 17 2.83301C9.95837 2.83301 4.25 4.7358 4.25 7.08301M29.75 7.08301V26.9163C29.75 29.268 24.0833 31.1663 17 31.1663C9.91667 31.1663 4.25 29.268 4.25 26.9163V7.08301M29.75 13.77C29.75 16.1216 24.0833 18.02 17 18.02C9.91667 18.02 4.25 16.1216 4.25 13.77M29.75 20.4563C29.75 22.808 24.0833 24.7063 17 24.7063C9.91667 24.7063 4.25 22.808 4.25 20.4563" stroke="black" stroke-width="2" stroke-linecap="round" stroke-linejoin="round"/>
</svg>
