<svg width="40" height="40" viewBox="0 0 40 40" fill="none" xmlns="http://www.w3.org/2000/svg">
<path d="M18.333 7.49968H30.4997C32.3665 7.49968 33.2999 7.49968 34.013 7.86299C34.6402 8.18257 35.1501 8.6925 35.4697 9.31971C35.833 10.0327 35.833 10.9662 35.833 12.833V14.9997C35.833 16.5528 35.833 17.3294 35.5793 17.942C35.241 18.7587 34.592 19.4076 33.7753 19.7459C33.1627 19.9997 32.3862 19.9997 30.833 19.9997M21.6663 32.4997H9.49968C7.63283 32.4997 6.69941 32.4997 5.98637 32.1364C5.35917 31.8168 4.84923 31.3069 4.52965 30.6796C4.16634 29.9666 4.16634 29.0332 4.16634 27.1663V24.9997C4.16634 23.4465 4.16634 22.67 4.42008 22.0574C4.75839 21.2406 5.4073 20.5917 6.22406 20.2534C6.83663 19.9997 7.6132 19.9997 9.16634 19.9997M17.1663 24.1663H22.833C23.2997 24.1663 23.5331 24.1663 23.7113 24.0755C23.8681 23.9956 23.9956 23.8681 24.0755 23.7113C24.1663 23.5331 24.1663 23.2997 24.1663 22.833V17.1663C24.1663 16.6996 24.1663 16.4663 24.0755 16.288C23.9956 16.1312 23.8681 16.0037 23.7113 15.9238C23.5331 15.833 23.2997 15.833 22.833 15.833H17.1663C16.6996 15.833 16.4663 15.833 16.288 15.9238C16.1312 16.0037 16.0037 16.1312 15.9238 16.288C15.833 16.4663 15.833 16.6996 15.833 17.1663V22.833C15.833 23.2997 15.833 23.5331 15.9238 23.7113C16.0037 23.8681 16.1312 23.9956 16.288 24.0755C16.4663 24.1663 16.6996 24.1663 17.1663 24.1663ZM29.6663 36.6663H35.333C35.7997 36.6663 36.0331 36.6663 36.2113 36.5755C36.3681 36.4956 36.4956 36.3681 36.5755 36.2113C36.6663 36.0331 36.6663 35.7997 36.6663 35.333V29.6663C36.6663 29.1996 36.6663 28.9663 36.5755 28.788C36.4956 28.6312 36.3681 28.5037 36.2113 28.4238C36.0331 28.333 35.7997 28.333 35.333 28.333H29.6663C29.1996 28.333 28.9663 28.333 28.788 28.4238C28.6312 28.5037 28.5037 28.6312 28.4238 28.788C28.333 28.9663 28.333 29.1996 28.333 29.6663V35.333C28.333 35.7997 28.333 36.0331 28.4238 36.2113C28.5037 36.3681 28.6312 36.4956 28.788 36.5755C28.9663 36.6663 29.1996 36.6663 29.6663 36.6663ZM4.66634 11.6663H10.333C10.7997 11.6663 11.0331 11.6663 11.2113 11.5755C11.3681 11.4956 11.4956 11.3681 11.5755 11.2113C11.6663 11.0331 11.6663 10.7997 11.6663 10.333V4.66634C11.6663 4.19963 11.6663 3.96628 11.5755 3.78802C11.4956 3.63121 11.3681 3.50373 11.2113 3.42384C11.0331 3.33301 10.7997 3.33301 10.333 3.33301H4.66634C4.19963 3.33301 3.96628 3.33301 3.78802 3.42384C3.63121 3.50373 3.50373 3.63121 3.42384 3.78802C3.33301 3.96628 3.33301 4.19963 3.33301 4.66634V10.333C3.33301 10.7997 3.33301 11.0331 3.42384 11.2113C3.50373 11.3681 3.63121 11.4956 3.78802 11.5755C3.96628 11.6663 4.19963 11.6663 4.66634 11.6663Z" stroke="#202020" stroke-width="2" stroke-linecap="round" stroke-linejoin="round"/>
</svg>
