<?xml version="1.0" encoding="UTF-8"?>
<svg width="24px" height="24px" viewBox="0 0 24 24" version="1.1" xmlns="http://www.w3.org/2000/svg" xmlns:xlink="http://www.w3.org/1999/xlink">
    <title>books</title>
    <g id="books" stroke="none" stroke-width="1" fill="none" fill-rule="evenodd">
        <rect id="16x16" x="0" y="0" width="24" height="24"></rect>
        <g transform="translate(6.000000, 5.000000)" fill="#FFFFFF" fill-rule="nonzero" id="Shape">
            <path d="M11.3354276,1.00803715 L9.66764006,0.499744447 L9.66764006,0 L7.90406821,0.956966779 L7.90406821,0.647695106 L7.23971495,1.00803715 L5.57192745,0.499744447 L5.57192745,0 L2.43345523e-17,3.02257716 L2.43345523e-17,13.5174297 L2.33323274,14.165344 L4.09592785,13.2085964 L4.09592785,13.5174297 L6.42916453,14.1660016 L12,11.1436436 L12,0.648352664 L11.3354276,1.00803715 Z M5.57192745,1.79579222 L5.31591802,1.92576961 L2.31109494,3.45174366 L0.795646203,3.03024868 L5.30167092,0.630598585 L5.31591802,0.635420681 L5.57192745,0.713012582 L6.90414094,1.11894535 L5.57192745,1.79579222 Z M9.66764006,1.79579222 L9.41163062,1.9259888 L7.90406821,2.69204443 L6.40702673,3.45262041 L5.57192745,3.22050226 L5.31591802,3.14926676 L4.89135442,3.03156379 L5.31591802,2.80580205 L5.57192745,2.66902988 L7.90406821,1.42755947 L9.39804108,0.631913702 L9.41163062,0.636516612 L9.66764006,0.714108513 L11.0000727,1.12026047 L9.66764006,1.79579222 Z"></path>
        </g>
    </g>
</svg>