<svg width="56" height="59" viewBox="0 0 56 59" fill="none" xmlns="http://www.w3.org/2000/svg">
<rect width="55.8333" height="58.8265" rx="10" fill="#F8F3FF"/>
<path d="M22.0539 27.3082H22.0669M27.9164 27.3082H27.9294M33.7789 27.3082H33.7919M21.4025 36.7297V39.6635C21.4025 40.3329 21.4025 40.6676 21.5448 40.8395C21.6686 40.989 21.8562 41.0759 22.0546 41.0757C22.2827 41.0755 22.5537 40.8664 23.0958 40.4483L26.2035 38.051C26.8384 37.5613 27.1558 37.3164 27.5093 37.1423C27.8229 36.9878 28.1567 36.8749 28.5016 36.8066C28.8905 36.7297 29.297 36.7297 30.11 36.7297H33.3881C35.5769 36.7297 36.6714 36.7297 37.5074 36.3189C38.2428 35.9576 38.8407 35.3811 39.2154 34.672C39.6414 33.8658 39.6414 32.8105 39.6414 30.6999V23.9165C39.6414 21.8059 39.6414 20.7506 39.2154 19.9444C38.8407 19.2353 38.2428 18.6588 37.5074 18.2975C36.6714 17.8867 35.5769 17.8867 33.3881 17.8867H22.4447C20.2559 17.8867 19.1614 17.8867 18.3254 18.2975C17.59 18.6588 16.9921 19.2353 16.6174 19.9444C16.1914 20.7506 16.1914 21.8059 16.1914 23.9165V31.7049C16.1914 32.8731 16.1914 33.4572 16.3246 33.9365C16.686 35.237 17.7395 36.2528 19.0882 36.6013C19.5852 36.7297 20.191 36.7297 21.4025 36.7297ZM22.7053 27.3082C22.7053 27.6551 22.4137 27.9363 22.0539 27.9363C21.6942 27.9363 21.4025 27.6551 21.4025 27.3082C21.4025 26.9613 21.6942 26.6801 22.0539 26.6801C22.4137 26.6801 22.7053 26.9613 22.7053 27.3082ZM28.5678 27.3082C28.5678 27.6551 28.2762 27.9363 27.9164 27.9363C27.5567 27.9363 27.265 27.6551 27.265 27.3082C27.265 26.9613 27.5567 26.6801 27.9164 26.6801C28.2762 26.6801 28.5678 26.9613 28.5678 27.3082ZM34.4303 27.3082C34.4303 27.6551 34.1387 27.9363 33.7789 27.9363C33.4192 27.9363 33.1275 27.6551 33.1275 27.3082C33.1275 26.9613 33.4192 26.6801 33.7789 26.6801C34.1387 26.6801 34.4303 26.9613 34.4303 27.3082Z" stroke="url(#paint0_linear_1901_3422)" stroke-width="2" stroke-linecap="round" stroke-linejoin="round"/>
<defs>
<linearGradient id="paint0_linear_1901_3422" x1="21.5473" y1="21.6553" x2="35.633" y2="32.7574" gradientUnits="userSpaceOnUse">
<stop stop-color="#802EF4"/>
<stop offset="0.484375" stop-color="#ED7FFF"/>
<stop offset="1" stop-color="#802EF4"/>
</linearGradient>
</defs>
</svg>
