<?xml version="1.0" encoding="UTF-8"?>
<svg width="24px" height="24px" viewBox="0 0 24 24" version="1.1" xmlns="http://www.w3.org/2000/svg" xmlns:xlink="http://www.w3.org/1999/xlink">
    <title>forum</title>
    <g id="forum" stroke="none" stroke-width="1" fill="none" fill-rule="evenodd">
        <rect id="16x16" x="0" y="0" width="24" height="24"></rect>
        <g transform="translate(5.000000, 6.000000)" fill="#FFFFFF" fill-rule="nonzero" id="Path">
            <path d="M5.95308092,6.28530413 C5.94093446,5.8846567 6.09164561,5.49618458 6.37081489,5.20855562 C6.64998417,4.92092666 7.03378542,4.75868905 7.43461689,4.75887313 L11.7535187,4.75887313 C11.8328622,4.75887313 11.8971828,4.69455252 11.8971828,4.61520904 L11.8971828,0.897900591 C11.8971828,0.402003788 11.495179,0 10.9992822,0 L0.897900591,0 C0.402003788,0 0,0.402003788 0,0.897900591 L0,6.8420025 C0,7.08014054 0.0945999692,7.30852507 0.262988994,7.4769141 C0.431378019,7.64530312 0.659762548,7.73990309 0.897900591,7.73990309 L1.79580118,7.73990309 L1.79580118,9.82303246 C1.79336606,9.94373563 1.86440552,10.0538468 1.9753813,10.1013816 C2.08616129,10.1453193 2.21238159,10.1207764 2.29862551,10.0385286 L4.58827202,7.73092409 L5.80043782,7.73092409 C5.88135471,7.73106419 5.94832121,7.6680369 5.95308092,7.58725999 L5.95308092,6.28530413 Z"></path>
            <path d="M13.3876978,5.64779472 L7.43461689,5.64779472 C7.27020661,5.64995467 7.11384494,5.71931459 7.00189709,5.83974334 C6.88994923,5.96017209 6.83217193,6.1211738 6.8420025,6.28530413 L6.8420025,9.8769065 C6.84196588,10.2056822 7.10587782,10.4735928 7.43461689,10.4784999 L10.1283187,10.4784999 L12.3191961,12.4179652 C12.407322,12.4905015 12.5285503,12.5078198 12.6334613,12.4628602 C12.741418,12.4165973 12.811859,12.3109358 12.8130414,12.19349 L12.8130414,10.4156469 L13.4056558,10.4156469 C13.5643951,10.4156651 13.7165057,10.351998 13.8279043,10.2389117 C13.9393028,10.1258253 14.0006753,9.9727745 13.9982702,9.81405346 L13.9982702,6.28530413 C14.0111251,6.11733846 13.9518888,5.95183944 13.8353698,5.83017991 C13.7188508,5.70852038 13.5560617,5.64219877 13.3876978,5.64779472 L13.3876978,5.64779472 Z"></path>
        </g>
    </g>
</svg>