<?xml version="1.0" encoding="UTF-8"?>
<svg width="24px" height="24px" viewBox="0 0 24 24" version="1.1" xmlns="http://www.w3.org/2000/svg" xmlns:xlink="http://www.w3.org/1999/xlink">
    <title>github</title>
    <g id="github" stroke="none" stroke-width="1" fill="none" fill-rule="evenodd">
        <rect id="16x16" x="0" y="0" width="24" height="24"></rect>
        <g transform="translate(6.000000, 5.000000)" fill="#FFFFFF" fill-rule="nonzero" id="Path">
            <path d="M12.993041,5.42395833 C13.0128765,5.04925137 12.9902751,4.6735031 12.9256676,4.30387542 C12.9256676,4.21965866 12.9256676,4.1354419 12.8582942,4.05122514 L12.8582942,4.05122514 C12.7175671,3.53271641 12.4580687,3.05408603 12.1003433,2.65322692 C12.0746101,2.59122477 12.0746101,2.52153052 12.1003433,2.45952837 C12.19297,2.18771443 12.2468367,1.90420528 12.2603552,1.61736077 C12.2687599,1.51366346 12.2687599,1.40945607 12.2603552,1.30575876 L12.2603552,1.24680703 C12.2358056,0.961372142 12.1821906,0.679187742 12.1003433,0.404639426 C12.0761643,0.306099816 12.0423133,0.210188759 11.9992832,0.118302442 C11.9777774,0.0796459138 11.9492112,0.0453664644 11.9150665,0.0172423297 C11.7887413,-0.0080226983 11.6539945,-0.0080226983 11.4266093,0.0340856818 C11.2377242,0.0775495314 11.0520179,0.13382419 10.8707786,0.202519202 L10.8707786,0.202519202 C10.3816429,0.386048244 9.91308508,0.620327171 9.47278042,0.901518311 C9.3875156,0.954899802 9.28482954,0.973020871 9.18644343,0.952048367 C7.73543093,0.585583161 6.21607603,0.585583161 4.76506353,0.952048367 L4.76506353,0.952048367 C4.66364929,0.982755034 4.55408343,0.97058105 4.46188319,0.918361663 C3.86458189,0.531492169 3.21126257,0.238918738 2.52489771,0.0509290338 L2.52489771,0.0509290338 C2.06170553,-0.0080226983 1.98591045,-0.0080226983 1.85958531,0.429904454 C1.64067685,1.08297507 1.64067685,1.7896144 1.85958531,2.44268502 C1.88531856,2.50468717 1.88531856,2.57438142 1.85958531,2.63638357 C1.1425674,3.50827226 0.835715185,4.64669398 1.0174177,5.76082537 C1.07676551,6.4293716 1.25351892,7.08221885 1.53956162,7.68938918 C1.95712611,8.50160154 2.68656794,9.10946972 3.56076386,9.37372438 C4.08290777,9.55057957 4.67242509,9.63479633 5.24509906,9.76112147 L5.24509906,9.76112147 C5.11042957,9.96491949 4.98673566,10.1757614 4.87454532,10.3927472 C4.80703008,10.5196442 4.75877859,10.6558837 4.73137682,10.7969876 C4.73137682,11.0243729 4.66400342,11.0833246 4.48714822,11.1338547 C3.91258718,11.3592215 3.26914254,11.3285812 2.71859626,11.0496379 C2.42603097,10.8628425 2.18555179,10.6049793 2.01959715,10.3001087 C1.74773502,9.82061343 1.2911248,9.47358966 0.756345748,9.34003767 C0.553836073,9.29551943 0.344073074,9.29551943 0.141563399,9.34003767 C0.0236599349,9.34003767 -0.0437134731,9.49162784 0.032081611,9.60110963 C0.11901733,9.69864417 0.221453862,9.78116249 0.335261947,9.84533823 C0.806069421,10.1450427 1.1643907,10.592204 1.35428474,11.1170113 C1.45677631,11.4323738 1.62955558,11.7203393 1.85958531,11.9591789 C2.2479247,12.2885497 2.73995989,12.4704537 3.24916185,12.4729011 C3.60287224,12.4729011 3.96500431,12.4729011 4.33555805,12.4729011 C4.48904644,12.4729011 4.61347336,12.5973281 4.61347336,12.7508165 L4.61347336,13.3655988 C4.61347336,13.5087673 4.61347336,13.9045861 4.61347336,14.2077664 C4.61345026,14.3186861 4.65808119,14.4249451 4.73730146,14.5025809 C4.81652174,14.5802168 4.92366056,14.6226922 5.03455716,14.6205146 L8.86641975,14.6205146 C8.97731635,14.6226922 9.08445517,14.5802168 9.16367545,14.5025809 C9.24289572,14.4249451 9.28752665,14.3186861 9.28750355,14.2077664 C9.28750355,13.5340323 9.28750355,12.2202509 9.28750355,11.6223119 C9.30560763,11.2166069 9.23669147,10.8117244 9.08538332,10.4348556 C8.97590153,10.215892 8.83273304,10.0137718 8.7064079,9.80322985 C9.05169662,9.74427812 9.42225036,9.69374807 9.79280411,9.60110963 C10.757112,9.40975029 11.6156981,8.86637936 12.2014034,8.07678627 C12.60228,7.46026107 12.845234,6.75453747 12.9088242,6.02189733 L12.9088242,5.79451207 L12.9088242,5.79451207 L12.993041,5.42395833 Z"></path>
        </g>
    </g>
</svg>