<?xml version="1.0" encoding="UTF-8"?>
<svg width="24px" height="24px" viewBox="0 0 24 24" version="1.1" xmlns="http://www.w3.org/2000/svg" xmlns:xlink="http://www.w3.org/1999/xlink">
    <title>research</title>
    <g id="research" stroke="none" stroke-width="1" fill="none" fill-rule="evenodd">
        <rect id="16x16" x="0" y="0" width="24" height="24"></rect>
        <g transform="translate(6.000000, 4.000000)" fill="#FFFFFF">
            <path d="M3.55452979,1.39547178 L3.55452979,1.39547178 L3.55452979,6.77292671 L2.18572308,9.07501072 L9.82082025,9.07501072 L8.40757176,6.77292671 L8.40757176,1.43991355 L8.40757176,1.43991355 C8.66478755,1.44467681 8.9050059,1.31185526 9.0377389,1.09148148 C9.17047189,0.871107704 9.17555422,0.596661728 9.05107143,0.371524697 C8.92658863,0.146387666 8.69145261,0.00476325144 8.43423683,0 L3.55452979,0 C3.19950829,0.0401337998 2.93122605,0.340453104 2.93122605,0.697735888 C2.93122605,1.05501867 3.19950829,1.35533798 3.55452979,1.39547178 Z" id="Path"></path>
            <path d="M11.6518214,12.0792748 L10.665214,10.408264 L1.3679944,10.408264 L0.372498608,12.0437214 C-0.0681640959,12.6735445 -0.121937712,13.4961883 0.232986509,14.1780164 C0.58791073,14.8598445 1.29261148,15.287666 2.06128611,15.287971 L9.94525722,15.287971 C10.7050208,15.2852596 11.401746,14.8649853 11.7585123,14.1941903 C12.1152786,13.5233953 12.0742837,12.7107601 11.6518214,12.0792748 L11.6518214,12.0792748 Z M2.88790315,13.9458294 C2.44133143,13.9494309 2.03672546,13.6831947 1.86332856,13.2716455 C1.68993166,12.8600962 1.78202086,12.3845888 2.09652396,12.0675288 C2.41102705,11.7504687 2.88577322,11.6545324 3.29871298,11.8245912 C3.71165273,11.9946501 3.98117084,12.3970871 3.98117084,12.8436734 C3.98117084,13.448923 3.49313315,13.9409484 2.88790315,13.9458294 L2.88790315,13.9458294 Z" id="Shape"></path>
        </g>
    </g>
</svg>