<svg width="925" height="969" viewBox="0 0 925 969" fill="none" xmlns="http://www.w3.org/2000/svg">
<path fill-rule="evenodd" clip-rule="evenodd" d="M462.5 119C365.563 119 272.597 157.508 204.052 226.052C135.508 294.597 97 387.563 97 484.5C97 581.437 135.508 674.403 204.052 742.948C272.597 811.492 365.563 850 462.5 850C559.437 850 652.403 811.492 720.948 742.948C789.492 674.403 828 581.437 828 484.5C828 387.563 789.492 294.597 720.948 226.052C652.403 157.508 559.437 119 462.5 119ZM165.531 484.5C165.531 414.827 189.517 350.773 229.676 300.151L311.32 381.795C290.696 412.07 279.693 447.867 279.75 484.5C279.75 522.603 291.4 557.966 311.32 587.206L229.676 668.849C188.044 616.432 165.43 551.439 165.531 484.5ZM278.151 717.323L359.795 635.68C389.035 655.6 424.397 667.25 462.5 667.25C500.603 667.25 535.966 655.6 565.206 635.68L646.849 717.323C594.432 758.956 529.439 781.57 462.5 781.469C395.562 781.566 330.57 758.952 278.151 717.323ZM695.323 668.895C736.965 616.465 759.58 551.455 759.469 484.5C759.566 417.562 736.952 352.57 695.323 300.151L613.68 381.795C633.6 411.035 645.25 446.397 645.25 484.5C645.25 522.603 633.6 557.966 613.68 587.206L695.323 668.849V668.895ZM646.895 251.676C594.465 210.035 529.455 187.42 462.5 187.531C395.561 187.43 330.568 210.044 278.151 251.676L359.795 333.32C390.07 312.696 425.867 301.693 462.5 301.75C500.603 301.75 535.966 313.4 565.206 333.32L646.849 251.676H646.895ZM348.281 484.5C348.281 454.207 360.315 425.155 381.735 403.735C403.155 382.315 432.207 370.281 462.5 370.281C492.793 370.281 521.845 382.315 543.265 403.735C564.685 425.155 576.719 454.207 576.719 484.5C576.719 514.793 564.685 543.845 543.265 565.265C521.845 586.685 492.793 598.719 462.5 598.719C432.207 598.719 403.155 586.685 381.735 565.265C360.315 543.845 348.281 514.793 348.281 484.5Z" fill="white"/>
</svg>
